<svg width="14" height="13" viewBox="0 0 14 13" fill="none" xmlns="http://www.w3.org/2000/svg">
<path d="M12.4395 4.97843C11.9974 4.97843 11.6083 5.15874 11.3219 5.43965C10.269 4.72296 8.84913 4.26174 7.27588 4.21256L8.09313 0.591783L10.6954 1.16604C10.6954 1.7923 11.2145 2.30383 11.8515 2.30383C12.5008 2.30383 13.0229 1.77874 13.0229 1.15191C13.0229 0.525087 12.5043 0 11.8521 0C11.3977 0 11.0057 0.269609 10.8103 0.63813L7.93622 0.0118696C7.79155 -0.026 7.6498 0.0757391 7.6113 0.218174L6.71413 4.20974C5.15314 4.27361 3.74847 4.73426 2.69206 5.45152C2.40564 5.15874 2.00139 4.97843 1.55923 4.97843C-0.0811052 4.97843 -0.618354 7.14265 0.883727 7.88252C0.830643 8.11143 0.806727 8.35561 0.806727 8.59922C0.806727 11.0302 3.59214 13 7.01222 13C10.4469 13 13.2323 11.0302 13.2323 8.59922C13.2323 8.35561 13.206 8.10013 13.1413 7.87065C14.613 7.12796 14.0711 4.97956 12.4395 4.97843ZM3.26722 8.03626C3.26722 7.39813 3.78639 6.88435 4.43855 6.88435C5.07555 6.88435 5.5953 7.39474 5.5953 8.03626C5.5953 8.66309 5.07614 9.17404 4.43855 9.17404C3.78931 9.17687 3.26722 8.66309 3.26722 8.03626ZM9.58996 10.7482C8.51605 11.804 5.48564 11.804 4.41114 10.7482C4.29272 10.6464 4.29272 10.4667 4.41114 10.3508C4.51439 10.2491 4.69755 10.2491 4.8008 10.3508C5.62097 11.1777 8.34163 11.1919 9.19738 10.3508C9.30063 10.2491 9.4838 10.2491 9.58705 10.3508C9.7078 10.4673 9.7078 10.647 9.58996 10.7482ZM9.56605 9.1763C8.92905 9.1763 8.40988 8.66591 8.40988 8.03965C8.40988 7.40152 8.92905 6.88774 9.56605 6.88774C10.2153 6.88774 10.7374 7.39813 10.7374 8.03965C10.7345 8.66309 10.2153 9.1763 9.56605 9.1763Z" fill="#727272"/>
</svg>
