<svg width="12" height="9" viewBox="0 0 12 9" fill="none" xmlns="http://www.w3.org/2000/svg">
<path d="M12 1.06546C11.5538 1.24615 11.0782 1.36592 10.5825 1.42408C11.0925 1.143 11.4818 0.701308 11.6648 0.168923C11.1892 0.430615 10.6642 0.615462 10.1047 0.718615C9.65325 0.274846 9.00975 0 8.30775 0C6.94575 0 5.84925 1.02046 5.84925 2.27146C5.84925 2.45146 5.86575 2.62454 5.90625 2.78931C3.861 2.69723 2.05125 1.79238 0.8355 0.414C0.62325 0.753923 0.49875 1.143 0.49875 1.56185C0.49875 2.34831 0.9375 3.04546 1.5915 3.44908C1.19625 3.44215 0.8085 3.33623 0.48 3.16938C0.48 3.17631 0.48 3.18531 0.48 3.19431C0.48 4.29785 1.33275 5.21446 2.451 5.42562C2.25075 5.47615 2.0325 5.50038 1.806 5.50038C1.6485 5.50038 1.4895 5.49208 1.34025 5.46162C1.659 6.36092 2.5635 7.02208 3.639 7.04354C2.802 7.64792 1.73925 8.01208 0.58875 8.01208C0.387 8.01208 0.1935 8.00377 0 7.98092C1.08975 8.62962 2.38125 9 3.774 9C8.301 9 10.776 5.53846 10.776 2.538C10.776 2.43762 10.7723 2.34069 10.767 2.24446C11.2552 1.92462 11.6655 1.52515 12 1.06546Z" fill="#727272"/>
</svg>
